<svg width="41" height="42" viewBox="0 0 41 42" fill="none" xmlns="http://www.w3.org/2000/svg">
<path fill-rule="evenodd" clip-rule="evenodd" d="M8.97573 0.451796C5.00523 1.7538 1.59223 4.9943 0.559228 8.4433C-0.159772 10.8423 -0.189772 14.5058 0.494228 16.3043L1.00923 17.6598L2.11923 16.6433C7.02523 12.1498 16.2997 11.8708 21.5827 16.0583C23.3642 17.4703 23.4567 17.4898 23.9577 16.5538C24.7377 15.0958 24.5852 9.7383 23.7032 7.6233C22.7167 5.2578 20.2807 2.7113 17.7647 1.4148C15.6212 0.310797 10.9627 -0.199704 8.97573 0.451796ZM24.8587 0.593794L23.4887 1.0943L24.7707 2.7748C27.7572 6.6903 28.8222 12.9983 27.2487 17.4568C26.8477 18.5943 25.8417 20.5103 25.0132 21.7138L23.5072 23.9028L25.8302 24.4878C33.2807 26.3638 40.9617 20.1468 40.9757 12.2283C40.9902 4.4323 32.0387 -2.02921 24.8587 0.593794ZM10.0012 16.6103C4.48973 17.5673 0.427729 22.1298 0.0687287 27.7678C-0.0422713 29.5128 0.145228 31.7543 0.489728 32.7978C1.29923 35.2503 4.69873 38.9233 7.22873 40.0788C9.97273 41.3323 16.9787 41.2803 16.9787 40.0063C16.9787 39.7908 16.2182 38.4848 15.2892 37.1038C11.6327 31.6708 11.9682 24.5463 16.1457 18.8953C16.7022 18.1428 17.0072 17.3758 16.8232 17.1918C16.1922 16.5613 12.2292 16.2233 10.0012 16.6103ZM16.4492 26.2018C13.9257 37.4773 27.6937 45.6683 36.4997 38.1303C40.1302 35.0228 41.7087 30.0703 40.4987 25.5843L39.9107 23.4043L38.8182 24.4303C38.2172 24.9948 36.4252 26.0518 34.8357 26.7793C29.6112 29.1713 23.4487 28.3983 18.6667 24.7508L17.0497 23.5178L16.4492 26.2018Z" fill="#5AEDEA"/>
</svg>
